<svg viewBox="-115 -72 240 228" xmlns="http://www.w3.org/2000/svg" style="width: 100%; height: 100%;"><defs><filter id="ds-enc" x="-40%" y="-40%" width="180%" height="180%"><feDropShadow dx="0" dy="4" stdDeviation="6" flood-color="rgba(5,22,38,0.20)"></feDropShadow></filter></defs><ellipse cx="28" cy="124" rx="90" ry="11" fill="rgba(5,22,38,0.08)"></ellipse><g filter="url(#ds-enc)"><polygon fill="#05626A" points="95.26,55.00 38.11,88.00 38.11,48.40 95.26,15.40"></polygon><polygon fill="#088D95" points="-57.16,33.00 38.11,88.00 38.11,48.40 -57.16,-6.60"></polygon><polygon fill="#0BB3BC" points="0.00,-39.60 95.26,15.40 38.11,48.40 -57.16,-6.60"></polygon><polygon fill="#35D1DA" opacity="0.17" points="0.00,-31.90 81.93,15.40 38.11,40.70 -43.82,-6.60"></polygon><polygon fill="none" stroke="#033840" stroke-width="2" opacity="0.55" points="0.00,-34.76 86.88,15.40 38.11,43.56 -48.77,-6.60"></polygon><polygon fill="none" stroke="#35D1DA" stroke-width="0.5" opacity="0.3" points="0.00,-32.56 83.07,15.40 38.11,41.36 -44.96,-6.60"></polygon><g><circle cx="0" cy="-29.04" r="5" fill="#088D95" opacity="0.9"></circle><circle cx="0" cy="-29.04" r="2.5" fill="#033840" opacity="0.8"></circle><line x1="-2" y1="-29.04" x2="2" y2="-29.04" stroke="#35D1DA" stroke-width="0.8" opacity="0.6"></line><line x1="0" y1="-31.04" x2="0" y2="-27.04" stroke="#35D1DA" stroke-width="0.8" opacity="0.6"></line></g><g><circle cx="76.2102355330306" cy="14.96" r="5" fill="#088D95" opacity="0.9"></circle><circle cx="76.2102355330306" cy="14.96" r="2.5" fill="#033840" opacity="0.8"></circle><line x1="74.2102355330306" y1="14.96" x2="78.2102355330306" y2="14.96" stroke="#35D1DA" stroke-width="0.8" opacity="0.6"></line><line x1="76.2102355330306" y1="12.96" x2="76.2102355330306" y2="16.96" stroke="#35D1DA" stroke-width="0.8" opacity="0.6"></line></g><g><circle cx="38.1051177665153" cy="36.96" r="5" fill="#088D95" opacity="0.9"></circle><circle cx="38.1051177665153" cy="36.96" r="2.5" fill="#033840" opacity="0.8"></circle><line x1="36.1051177665153" y1="36.96" x2="40.1051177665153" y2="36.96" stroke="#35D1DA" stroke-width="0.8" opacity="0.6"></line><line x1="38.1051177665153" y1="34.96" x2="38.1051177665153" y2="38.96" stroke="#35D1DA" stroke-width="0.8" opacity="0.6"></line></g><g><circle cx="-38.1051177665153" cy="-7.039999999999999" r="5" fill="#088D95" opacity="0.9"></circle><circle cx="-38.1051177665153" cy="-7.039999999999999" r="2.5" fill="#033840" opacity="0.8"></circle><line x1="-40.1051177665153" y1="-7.039999999999999" x2="-36.1051177665153" y2="-7.039999999999999" stroke="#35D1DA" stroke-width="0.8" opacity="0.6"></line><line x1="-38.1051177665153" y1="-9.04" x2="-38.1051177665153" y2="-5.039999999999999" stroke="#35D1DA" stroke-width="0.8" opacity="0.6"></line></g><circle cx="-36.19986187818953" cy="20.54799999999999" r="5.5" fill="#05626A"></circle><circle cx="-36.19986187818953" cy="20.54799999999999" r="4" fill="#35D1DA" opacity="0.9"></circle><circle cx="-36.19986187818953" cy="20.54799999999999" r="2" fill="#FFFFFF" opacity="0.85"></circle><ellipse cx="-28.578838324886473" cy="-1.3200000000000003" rx="6" ry="3" fill="#088D95"></ellipse><ellipse cx="-28.578838324886473" cy="-1.3200000000000003" rx="3.5" ry="1.8" fill="#033840"></ellipse><ellipse cx="-28.578838324886473" cy="-1.3200000000000003" rx="1.5" ry="0.8" fill="#2E3F52"></ellipse><polygon fill="#1B2838" points="0.00,58.08 26.67,73.48 26.67,59.62 0.00,44.22"></polygon><polygon fill="#2E3F52" points="2.29,56.63 24.39,69.39 24.39,61.07 2.29,48.31"></polygon><polygon fill="#4C6880" opacity="0.5" points="8.57,59.07 18.10,64.57 18.10,58.63 8.57,53.13"></polygon><polygon fill="#033840" opacity="0.6" points="-28.58,26.53 -3.81,40.83 -3.81,29.35 -28.58,15.05"></polygon><polygon fill="#35D1DA" opacity="0.3" points="-26.67,24.07 -6.67,35.62 -6.67,33.24 -26.67,21.69"></polygon><polygon fill="#35D1DA" opacity="0.3" points="-20.01,26.38 -6.29,34.30 -6.29,31.92 -20.01,24.00"></polygon><polygon fill="#35D1DA" opacity="0.3" points="-13.34,28.69 -5.91,32.98 -5.91,30.60 -13.34,26.31"></polygon><g><circle cx="88.02282204065034" cy="44.132" r="5.5" fill="#05626A" opacity="0.85"></circle><circle cx="88.02282204065034" cy="44.132" r="3" fill="#088D95" opacity="0.7"></circle><circle cx="88.02282204065034" cy="44.132" r="1.5" fill="#033840" opacity="0.9"></circle><line x1="86.02282204065034" y1="44.132" x2="90.02282204065034" y2="44.132" stroke="#35D1DA" stroke-width="0.7" opacity="0.5"></line><line x1="88.02282204065034" y1="42.132" x2="88.02282204065034" y2="46.132" stroke="#35D1DA" stroke-width="0.7" opacity="0.5"></line></g><g><circle cx="45.345090142153204" cy="68.772" r="5.5" fill="#05626A" opacity="0.85"></circle><circle cx="45.345090142153204" cy="68.772" r="3" fill="#088D95" opacity="0.7"></circle><circle cx="45.345090142153204" cy="68.772" r="1.5" fill="#033840" opacity="0.9"></circle><line x1="43.345090142153204" y1="68.772" x2="47.345090142153204" y2="68.772" stroke="#35D1DA" stroke-width="0.7" opacity="0.5"></line><line x1="45.345090142153204" y1="66.772" x2="45.345090142153204" y2="70.772" stroke="#35D1DA" stroke-width="0.7" opacity="0.5"></line></g><polygon fill="#033840" opacity="0.25" points="87.64,49.50 45.73,73.70 45.73,72.82 87.64,48.62"></polygon><polygon fill="#033840" opacity="0.25" points="87.64,39.60 45.73,63.80 45.73,62.92 87.64,38.72"></polygon><polygon fill="#033840" opacity="0.25" points="87.64,29.70 45.73,53.90 45.73,53.02 87.64,28.82"></polygon></g></svg>